<svg viewBox="0 0 16 16" fill="none" xmlns="http://www.w3.org/2000/svg">
<path d="M14.0002 6.66683H2.00016C1.82335 6.66683 1.65378 6.73707 1.52876 6.86209C1.40373 6.98712 1.3335 7.15669 1.3335 7.3335C1.33353 8.50371 1.64158 9.65331 2.2267 10.6667C2.81182 11.6802 3.65339 12.5217 4.66683 13.1068V14.0002C4.66683 14.177 4.73707 14.3465 4.86209 14.4716C4.98712 14.5966 5.15669 14.6668 5.3335 14.6668H10.6668C10.8436 14.6668 11.0132 14.5966 11.1382 14.4716C11.2633 14.3465 11.3335 14.177 11.3335 14.0002V13.1068C12.3469 12.5217 13.1885 11.6802 13.7736 10.6667C14.3587 9.65331 14.6668 8.50371 14.6668 7.3335C14.6668 7.15669 14.5966 6.98712 14.4716 6.86209C14.3465 6.73707 14.177 6.66683 14.0002 6.66683ZM10.3668 12.1068C10.2559 12.1627 10.1627 12.2485 10.098 12.3546C10.0332 12.4606 9.9993 12.5826 10.0002 12.7068V13.3335H6.00016V12.7068C6.00103 12.5826 5.96715 12.4606 5.90237 12.3546C5.83758 12.2485 5.74445 12.1627 5.6335 12.1068C4.84477 11.7168 4.16478 11.1378 3.65414 10.4212C3.14349 9.70472 2.81805 8.87298 2.70683 8.00016H13.2935C13.1823 8.87298 12.8568 9.70472 12.3462 10.4212C11.8355 11.1378 11.1556 11.7168 10.3668 12.1068ZM6.00016 6.00016V5.28683C5.99918 4.50258 5.69315 3.74948 5.14683 3.18683C4.99226 3.03065 4.87024 2.84533 4.78785 2.64162C4.70545 2.43792 4.66431 2.21989 4.66683 2.00016V1.3335H3.3335V2.00016C3.33101 2.78902 3.63729 3.54754 4.18683 4.1135C4.49575 4.42571 4.66835 4.84762 4.66683 5.28683V6.00016H6.00016ZM8.66683 6.00016V5.28683C8.66584 4.50258 8.35982 3.74948 7.8135 3.18683C7.65893 3.03065 7.53691 2.84533 7.45451 2.64162C7.37212 2.43792 7.33098 2.21989 7.3335 2.00016V1.3335H6.00016V2.00016C6.00115 2.78441 6.30717 3.53751 6.8535 4.10016C7.00806 4.25635 7.13008 4.44166 7.21248 4.64537C7.29488 4.84907 7.33601 5.06711 7.3335 5.28683V6.00016H8.66683ZM11.3335 6.00016V5.28683C11.3325 4.50258 11.0265 3.74948 10.4802 3.18683C10.3256 3.03065 10.2036 2.84533 10.1212 2.64162C10.0388 2.43792 9.99765 2.21989 10.0002 2.00016V1.3335H8.66683V2.00016C8.66782 2.78441 8.97384 3.53751 9.52016 4.10016C9.67473 4.25635 9.79675 4.44166 9.87915 4.64537C9.96154 4.84907 10.0027 5.06711 10.0002 5.28683V6.00016H11.3335Z" fill="url(#paint0_linear_129_532)"/>
<defs>
<linearGradient id="paint0_linear_129_532" x1="8.00016" y1="14.6668" x2="8.2506" y2="1.3382" gradientUnits="userSpaceOnUse">
<stop stop-color="#5626EB"/>
<stop offset="1" stop-color="#7C54F7"/>
</linearGradient>
</defs>
</svg>
