<svg width="48" height="48" viewBox="0 0 48 48" fill="none" xmlns="http://www.w3.org/2000/svg">
<g clip-path="url(#clip0_135_64)">
<g filter="url(#filter0_d_135_64)">
<rect width="48" height="48" rx="7.68" fill="url(#paint0_linear_135_64)"/>
<rect x="0.5" y="0.5" width="47" height="47" rx="7.18" stroke="#9273F2"/>
</g>
<g filter="url(#filter1_dd_135_64)">
<path d="M39.3021 42.7507C37.8367 42.7507 36.6045 41.5291 36.6045 40.0701C36.6045 38.5771 37.8367 37.3555 39.3021 37.3555C40.7674 37.3555 41.9996 38.5771 41.9996 40.0701C41.9996 41.5291 40.7674 42.7507 39.3021 42.7507Z" fill="url(#paint1_linear_135_64)"/>
<path d="M39.3021 42.6907C37.8695 42.6907 36.6645 41.4956 36.6645 40.0701C36.6645 38.6101 37.8699 37.4155 39.3021 37.4155C40.7342 37.4155 41.9396 38.6101 41.9396 40.0701C41.9396 41.4956 40.7347 42.6907 39.3021 42.6907Z" stroke="#EDECEC" stroke-width="0.12"/>
</g>
<g filter="url(#filter2_dd_135_64)">
<path d="M31.5286 42.5559H27.3215V29.0379H24.0454V25.5205H27.3215V20.2098H31.5286V25.5205H34.8391V29.0379H31.5286V42.5559Z" fill="url(#paint2_linear_135_64)"/>
<path d="M31.5286 25.5805H34.7791V28.9779H31.5286H31.4686V29.0379V42.4959H27.3815V29.0379V28.9779H27.3215H24.1054V25.5805H27.3215H27.3815V25.5205V20.2698H31.4686V25.5205V25.5805H31.5286Z" stroke="#EDECEC" stroke-width="0.12"/>
</g>
<g filter="url(#filter3_dd_135_64)">
<path d="M12.1477 43.0044C8.52685 43.0044 6.31982 40.9008 6.31982 37.6937C6.31982 34.5556 8.59582 32.59 12.6305 32.2796L17.7343 31.9003V31.521C17.7343 29.2105 16.3549 28.2794 14.2168 28.2794C11.7339 28.2794 10.3545 29.3139 10.3545 31.1072H6.76813C6.76813 27.4173 9.80278 25.0034 14.4237 25.0034C19.0102 25.0034 21.838 27.4863 21.838 32.2107V42.5561H18.1481L17.8377 40.0387C17.1135 41.7974 14.8031 43.0044 12.1477 43.0044ZM13.5271 39.8318C16.1135 39.8318 17.7688 38.28 17.7688 35.6591V34.7625L14.2168 35.0384C11.596 35.2798 10.5959 36.1419 10.5959 37.5213C10.5959 39.0731 11.6305 39.8318 13.5271 39.8318Z" fill="url(#paint3_linear_135_64)"/>
<path d="M8.00127 33.9718C9.06181 33.0603 10.6257 32.4941 12.635 32.3395L12.6351 32.3395L17.7387 31.9601L17.7943 31.956V31.9003V31.521C17.7943 30.3534 17.4453 29.5241 16.8162 28.9881C16.189 28.4536 15.2932 28.2194 14.2168 28.2194C12.9683 28.2194 11.9883 28.4793 11.319 28.9725C10.6619 29.4567 10.3102 30.1614 10.295 31.0472H6.8284C6.84466 29.2472 7.59314 27.7601 8.90046 26.7185C10.2235 25.6643 12.1231 25.0634 14.4237 25.0634C16.7066 25.0634 18.5436 25.6812 19.8095 26.8789C21.075 28.0762 21.778 29.8606 21.778 32.2107V42.4961H18.2011L17.8973 40.0314L17.8693 39.8044L17.7822 40.0159C17.071 41.7432 14.7901 42.9444 12.1477 42.9444C10.3488 42.9444 8.90752 42.422 7.91664 41.5076C6.92624 40.5937 6.37982 39.2829 6.37982 37.6937C6.37982 36.1406 6.94232 34.8819 8.00127 33.9718ZM17.8288 34.7625V34.6977L17.7641 34.7027L14.2122 34.9786L14.2113 34.9787C12.897 35.0997 11.9789 35.377 11.3884 35.8045C10.7936 36.235 10.5359 36.8144 10.5359 37.5213C10.5359 38.3117 10.8002 38.9087 11.3136 39.3059C11.8241 39.7011 12.5723 39.8918 13.5271 39.8918C14.8323 39.8918 15.9089 39.5001 16.6596 38.7713C17.4105 38.0424 17.8288 36.9825 17.8288 35.6591V34.7625Z" stroke="#EDECEC" stroke-width="0.12"/>
</g>
</g>
<defs>
<filter id="filter0_d_135_64" x="-64" y="-64" width="176" height="176" filterUnits="userSpaceOnUse" color-interpolation-filters="sRGB">
<feFlood flood-opacity="0" result="BackgroundImageFix"/>
<feColorMatrix in="SourceAlpha" type="matrix" values="0 0 0 0 0 0 0 0 0 0 0 0 0 0 0 0 0 0 127 0" result="hardAlpha"/>
<feOffset/>
<feGaussianBlur stdDeviation="32"/>
<feComposite in2="hardAlpha" operator="out"/>
<feColorMatrix type="matrix" values="0 0 0 0 0.109804 0 0 0 0 0.109804 0 0 0 0 0.109804 0 0 0 0.12 0"/>
<feBlend mode="normal" in2="BackgroundImageFix" result="effect1_dropShadow_135_64"/>
<feBlend mode="normal" in="SourceGraphic" in2="effect1_dropShadow_135_64" result="shape"/>
</filter>
<filter id="filter1_dd_135_64" x="31.3245" y="30.6355" width="13.075" height="15.9551" filterUnits="userSpaceOnUse" color-interpolation-filters="sRGB">
<feFlood flood-opacity="0" result="BackgroundImageFix"/>
<feColorMatrix in="SourceAlpha" type="matrix" values="0 0 0 0 0 0 0 0 0 0 0 0 0 0 0 0 0 0 127 0" result="hardAlpha"/>
<feOffset dy="1.92"/>
<feGaussianBlur stdDeviation="0.96"/>
<feComposite in2="hardAlpha" operator="out"/>
<feColorMatrix type="matrix" values="0 0 0 0 0 0 0 0 0 0 0 0 0 0 0 0 0 0 0.2 0"/>
<feBlend mode="normal" in2="BackgroundImageFix" result="effect1_dropShadow_135_64"/>
<feColorMatrix in="SourceAlpha" type="matrix" values="0 0 0 0 0 0 0 0 0 0 0 0 0 0 0 0 0 0 127 0" result="hardAlpha"/>
<feOffset dx="-1.44" dy="-2.88"/>
<feGaussianBlur stdDeviation="1.92"/>
<feComposite in2="hardAlpha" operator="out"/>
<feColorMatrix type="matrix" values="0 0 0 0 1 0 0 0 0 1 0 0 0 0 1 0 0 0 0.12 0"/>
<feBlend mode="normal" in2="effect1_dropShadow_135_64" result="effect2_dropShadow_135_64"/>
<feBlend mode="normal" in="SourceGraphic" in2="effect2_dropShadow_135_64" result="shape"/>
</filter>
<filter id="filter2_dd_135_64" x="18.7654" y="13.4898" width="18.4739" height="32.9061" filterUnits="userSpaceOnUse" color-interpolation-filters="sRGB">
<feFlood flood-opacity="0" result="BackgroundImageFix"/>
<feColorMatrix in="SourceAlpha" type="matrix" values="0 0 0 0 0 0 0 0 0 0 0 0 0 0 0 0 0 0 127 0" result="hardAlpha"/>
<feOffset dy="1.92"/>
<feGaussianBlur stdDeviation="0.96"/>
<feComposite in2="hardAlpha" operator="out"/>
<feColorMatrix type="matrix" values="0 0 0 0 0 0 0 0 0 0 0 0 0 0 0 0 0 0 0.2 0"/>
<feBlend mode="normal" in2="BackgroundImageFix" result="effect1_dropShadow_135_64"/>
<feColorMatrix in="SourceAlpha" type="matrix" values="0 0 0 0 0 0 0 0 0 0 0 0 0 0 0 0 0 0 127 0" result="hardAlpha"/>
<feOffset dx="-1.44" dy="-2.88"/>
<feGaussianBlur stdDeviation="1.92"/>
<feComposite in2="hardAlpha" operator="out"/>
<feColorMatrix type="matrix" values="0 0 0 0 1 0 0 0 0 1 0 0 0 0 1 0 0 0 0.12 0"/>
<feBlend mode="normal" in2="effect1_dropShadow_135_64" result="effect2_dropShadow_135_64"/>
<feBlend mode="normal" in="SourceGraphic" in2="effect2_dropShadow_135_64" result="shape"/>
</filter>
<filter id="filter3_dd_135_64" x="1.03982" y="18.2834" width="23.1981" height="28.561" filterUnits="userSpaceOnUse" color-interpolation-filters="sRGB">
<feFlood flood-opacity="0" result="BackgroundImageFix"/>
<feColorMatrix in="SourceAlpha" type="matrix" values="0 0 0 0 0 0 0 0 0 0 0 0 0 0 0 0 0 0 127 0" result="hardAlpha"/>
<feOffset dx="-1.44" dy="-2.88"/>
<feGaussianBlur stdDeviation="1.92"/>
<feComposite in2="hardAlpha" operator="out"/>
<feColorMatrix type="matrix" values="0 0 0 0 1 0 0 0 0 1 0 0 0 0 1 0 0 0 0.12 0"/>
<feBlend mode="normal" in2="BackgroundImageFix" result="effect1_dropShadow_135_64"/>
<feColorMatrix in="SourceAlpha" type="matrix" values="0 0 0 0 0 0 0 0 0 0 0 0 0 0 0 0 0 0 127 0" result="hardAlpha"/>
<feOffset dy="1.92"/>
<feGaussianBlur stdDeviation="0.96"/>
<feComposite in2="hardAlpha" operator="out"/>
<feColorMatrix type="matrix" values="0 0 0 0 0 0 0 0 0 0 0 0 0 0 0 0 0 0 0.2 0"/>
<feBlend mode="normal" in2="effect1_dropShadow_135_64" result="effect2_dropShadow_135_64"/>
<feBlend mode="normal" in="SourceGraphic" in2="effect2_dropShadow_135_64" result="shape"/>
</filter>
<linearGradient id="paint0_linear_135_64" x1="24" y1="48" x2="19.5783" y2="0.410844" gradientUnits="userSpaceOnUse">
<stop stop-color="#5626EB"/>
<stop offset="1" stop-color="#7C54F7"/>
</linearGradient>
<linearGradient id="paint1_linear_135_64" x1="34.2166" y1="37.3095" x2="35.6666" y2="43.0006" gradientUnits="userSpaceOnUse">
<stop stop-color="#FEFEFE"/>
<stop offset="1" stop-color="#CAC9CD"/>
</linearGradient>
<linearGradient id="paint2_linear_135_64" x1="19.2682" y1="20.0191" x2="29.6269" y2="39.6574" gradientUnits="userSpaceOnUse">
<stop stop-color="#FEFEFE"/>
<stop offset="1" stop-color="#CAC9CD"/>
</linearGradient>
<linearGradient id="paint3_linear_135_64" x1="-0.548397" y1="24.8497" x2="4.94785" y2="43.4466" gradientUnits="userSpaceOnUse">
<stop stop-color="#FEFEFE"/>
<stop offset="1" stop-color="#CAC9CD"/>
</linearGradient>
<clipPath id="clip0_135_64">
<rect width="48" height="48" rx="7.68" fill="white"/>
</clipPath>
</defs>
</svg>
