<svg viewBox="0 0 17 16" fill="none" xmlns="http://www.w3.org/2000/svg">
<path d="M12.4999 5.53977C12.2599 5.26644 12.0133 4.99311 11.7533 4.73311L11.5599 4.55311L11.6533 4.47311C11.9793 4.19325 12.2116 3.82012 12.3189 3.40406C12.4262 2.98801 12.4033 2.54906 12.2533 2.14644C12.0359 1.69242 11.6917 1.31106 11.2622 1.04843C10.8328 0.785794 10.3365 0.653123 9.83328 0.66644V1.99977C10.0705 1.99647 10.3043 2.05651 10.5105 2.1737C10.7168 2.29089 10.888 2.46099 11.0066 2.66644C11.1199 2.93311 11.0066 3.22644 10.6933 3.53977C10.6466 3.59311 10.5933 3.62644 10.5466 3.67311C8.54661 2.06644 6.35328 1.15977 5.27995 2.23311C5.16752 2.34804 5.07513 2.48099 5.00661 2.62644V2.69311L4.88661 3.04644L1.94661 11.7798C1.83541 12.1089 1.80421 12.4597 1.85561 12.8033C1.90701 13.1469 2.03952 13.4732 2.24218 13.7554C2.44483 14.0376 2.71179 14.2674 3.02095 14.4258C3.33011 14.5842 3.67256 14.6667 4.01995 14.6664C4.24677 14.6642 4.4718 14.626 4.68661 14.5531L13.8333 11.5198C13.9457 11.4779 14.0447 11.4065 14.1199 11.3131L14.2599 11.1931C15.2133 10.2331 14.5999 8.38644 13.3199 6.59311C14.08 6.14954 14.9551 5.94294 15.8333 5.99977V4.66644C14.6582 4.60179 13.4924 4.90722 12.4999 5.53977ZM4.29995 13.2864C4.14862 13.3365 3.98635 13.3436 3.83125 13.3068C3.67615 13.27 3.53433 13.1908 3.42161 13.0781C3.3089 12.9654 3.22973 12.8236 3.19294 12.6685C3.15615 12.5134 3.16319 12.3511 3.21328 12.1998L4.11995 9.46644C4.767 10.7004 5.76125 11.7178 6.97995 12.3931L4.29995 13.2864ZM8.96661 11.7331C7.9591 11.4663 7.04 10.9379 6.30244 10.2015C5.56487 9.46512 5.03504 8.54686 4.76661 7.53977L5.43328 5.53977L5.47328 5.59977C5.54661 5.74644 5.63995 5.89977 5.73328 6.05311C5.82661 6.20644 5.83995 6.24644 5.90661 6.34644C5.97328 6.44644 6.12661 6.66644 6.24661 6.83311C6.36661 6.99977 6.37328 7.01977 6.44661 7.11311C6.51995 7.20644 6.73328 7.47977 6.88661 7.65977L7.07995 7.89311C7.30661 8.15311 7.54661 8.40644 7.79995 8.66644C8.05328 8.92644 8.25328 9.09311 8.46661 9.33311L8.68661 9.51977L9.20661 9.93977L9.45328 10.1264C9.63995 10.2598 9.81995 10.3931 10.0066 10.5131L10.2133 10.6464C10.4533 10.7931 10.6933 10.9331 10.9266 11.0531H10.9599L8.96661 11.7331ZM13.3066 10.2464H13.2666C12.8066 10.4998 10.8933 9.86644 8.73995 7.70644C8.51328 7.47977 8.29995 7.25977 8.10661 7.03977L7.91328 6.80644L7.55995 6.37977L7.36661 6.11311C7.27995 5.98644 7.18661 5.86644 7.10661 5.74644L6.93328 5.46644L6.73995 5.15311C6.68661 5.05977 6.64661 4.97311 6.59995 4.88644C6.55328 4.79977 6.49995 4.71311 6.45995 4.61977C6.42419 4.54166 6.39303 4.46152 6.36661 4.37977C6.33328 4.29311 6.29328 4.20644 6.26661 4.12644C6.23995 4.04644 6.23328 3.99977 6.21328 3.91977C6.19328 3.83977 6.17995 3.77311 6.16661 3.70644C6.16329 3.64871 6.16329 3.59084 6.16661 3.53311C6.16019 3.47997 6.16019 3.42625 6.16661 3.37311L6.23995 3.16644C6.47995 2.92644 7.72661 3.16644 9.39328 4.43311C9.11076 4.56061 8.80874 4.6395 8.49995 4.66644V5.99977C9.2081 5.95904 9.89517 5.74376 10.4999 5.37311L10.8199 5.67977C11.0999 5.95977 11.3599 6.24644 11.6066 6.53311C11.225 7.22318 11.0843 8.02076 11.2066 8.79977L12.5399 8.53977C12.5007 8.29243 12.5007 8.04044 12.5399 7.79311C12.7434 8.10165 12.9239 8.42474 13.0799 8.75977C13.4533 9.63977 13.4266 10.1331 13.3066 10.2464Z" fill="url(#paint0_linear_129_563)"/>
<defs>
<linearGradient id="paint0_linear_129_563" x1="8.83241" y1="14.6664" x2="9.09537" y2="0.670468" gradientUnits="userSpaceOnUse">
<stop stop-color="#5626EB"/>
<stop offset="1" stop-color="#7C54F7"/>
</linearGradient>
</defs>
</svg>
