<svg  viewBox="0 0 16 16" fill="none" xmlns="http://www.w3.org/2000/svg">
<path d="M8.00016 1.33337C4.32416 1.33337 1.3335 4.32404 1.3335 8.00004C1.3335 11.676 4.32416 14.6667 8.00016 14.6667C11.6762 14.6667 14.6668 11.676 14.6668 8.00004C14.6668 4.32404 11.6762 1.33337 8.00016 1.33337ZM2.66683 8.00004C2.66683 7.40071 2.77083 6.82537 2.95416 6.28737L4.00016 7.33337L5.3335 8.66671V10L6.66683 11.3334L7.3335 12V13.2874C4.7075 12.9574 2.66683 10.7147 2.66683 8.00004ZM12.2202 11.2487C11.7848 10.898 11.1248 10.6667 10.6668 10.6667V10C10.6668 9.64642 10.5264 9.30728 10.2763 9.05723C10.0263 8.80718 9.68712 8.66671 9.3335 8.66671H6.66683V6.66671C7.02045 6.66671 7.35959 6.52623 7.60964 6.27618C7.85969 6.02613 8.00016 5.687 8.00016 5.33337V4.66671H8.66683C9.02045 4.66671 9.35959 4.52623 9.60964 4.27618C9.85969 4.02613 10.0002 3.687 10.0002 3.33337V3.05937C11.9522 3.85204 13.3335 5.76671 13.3335 8.00004C13.3334 9.17651 12.9417 10.3195 12.2202 11.2487Z" fill="url(#paint0_linear_129_468)"/>
<defs>
<linearGradient id="paint0_linear_129_468" x1="8.00016" y1="14.6667" x2="8.2506" y2="1.33808" gradientUnits="userSpaceOnUse">
<stop stop-color="#5626EB"/>
<stop offset="1" stop-color="#7C54F7"/>
</linearGradient>
</defs>
</svg>
